<?xml version="1.0" encoding="utf-8" standalone="no"?>
<!DOCTYPE svg PUBLIC "-//W3C//DTD SVG 1.1//EN"
  "http://www.w3.org/Graphics/SVG/1.1/DTD/svg11.dtd">
<svg xmlns:xlink="http://www.w3.org/1999/xlink" width="720pt" height="432pt" viewBox="0 0 720 432" xmlns="http://www.w3.org/2000/svg" version="1.1">
 <metadata>
  <rdf:RDF xmlns:dc="http://purl.org/dc/elements/1.1/" xmlns:cc="http://creativecommons.org/ns#" xmlns:rdf="http://www.w3.org/1999/02/22-rdf-syntax-ns#">
   <cc:Work>
    <dc:type rdf:resource="http://purl.org/dc/dcmitype/StillImage"/>
    <dc:date>2024-11-21T13:08:05.658121</dc:date>
    <dc:format>image/svg+xml</dc:format>
    <dc:creator>
     <cc:Agent>
      <dc:title>Matplotlib v3.7.2, https://matplotlib.org/</dc:title>
     </cc:Agent>
    </dc:creator>
   </cc:Work>
  </rdf:RDF>
 </metadata>
 <defs>
  <style type="text/css">*{stroke-linejoin: round; stroke-linecap: butt}</style>
 </defs>
 <g id="figure_1">
  <g id="patch_1">
   <path d="M 0 432 
L 720 432 
L 720 0 
L 0 0 
z
" style="fill: #ffffff"/>
  </g>
  <g id="axes_1">
   <g id="patch_2">
    <path d="M 58.16 374.198714 
L 709.2 374.198714 
L 709.2 27.6 
L 58.16 27.6 
z
" style="fill: #ffffff"/>
   </g>
   <g id="patch_3">
    <path d="M 87.752727 374.198714 
L 105.420027 374.198714 
L 105.420027 373.465172 
L 87.752727 373.465172 
z
" clip-path="url(#p2c3d52b056)" style="fill: #87ceeb"/>
   </g>
   <g id="patch_4">
    <path d="M 87.752727 374.198714 
L 105.420027 374.198714 
L 105.420027 361.239468 
L 87.752727 361.239468 
z
" clip-path="url(#p2c3d52b056)" style="fill: #87ceeb"/>
   </g>
   <g id="patch_5">
    <path d="M 87.752727 374.198714 
L 105.420027 374.198714 
L 105.420027 368.819404 
L 87.752727 368.819404 
z
" clip-path="url(#p2c3d52b056)" style="fill: #87ceeb"/>
   </g>
   <g id="patch_6">
    <path d="M 109.836852 374.198714 
L 127.504152 374.198714 
L 127.504152 374.198714 
L 109.836852 374.198714 
z
" clip-path="url(#p2c3d52b056)" style="fill: #87ceeb"/>
   </g>
   <g id="patch_7">
    <path d="M 109.836852 374.198714 
L 127.504152 374.198714 
L 127.504152 358.549813 
L 109.836852 358.549813 
z
" clip-path="url(#p2c3d52b056)" style="fill: #87ceeb"/>
   </g>
   <g id="patch_8">
    <path d="M 109.836852 374.198714 
L 127.504152 374.198714 
L 127.504152 369.308433 
L 109.836852 369.308433 
z
" clip-path="url(#p2c3d52b056)" style="fill: #87ceeb"/>
   </g>
   <g id="patch_9">
    <path d="M 242.341601 374.198714 
L 260.008901 374.198714 
L 260.008901 372.487116 
L 242.341601 372.487116 
z
" clip-path="url(#p2c3d52b056)" style="fill: #87ceeb"/>
   </g>
   <g id="patch_10">
    <path d="M 242.341601 374.198714 
L 260.008901 374.198714 
L 260.008901 348.280221 
L 242.341601 348.280221 
z
" clip-path="url(#p2c3d52b056)" style="fill: #87ceeb"/>
   </g>
   <g id="patch_11">
    <path d="M 242.341601 374.198714 
L 260.008901 374.198714 
L 260.008901 364.907179 
L 242.341601 364.907179 
z
" clip-path="url(#p2c3d52b056)" style="fill: #87ceeb"/>
   </g>
   <g id="patch_12">
    <path d="M 264.425726 374.198714 
L 282.093026 374.198714 
L 282.093026 373.465172 
L 264.425726 373.465172 
z
" clip-path="url(#p2c3d52b056)" style="fill: #87ceeb"/>
   </g>
   <g id="patch_13">
    <path d="M 264.425726 374.198714 
L 282.093026 374.198714 
L 282.093026 363.440095 
L 264.425726 363.440095 
z
" clip-path="url(#p2c3d52b056)" style="fill: #87ceeb"/>
   </g>
   <g id="patch_14">
    <path d="M 264.425726 374.198714 
L 282.093026 374.198714 
L 282.093026 367.35232 
L 264.425726 367.35232 
z
" clip-path="url(#p2c3d52b056)" style="fill: #87ceeb"/>
   </g>
   <g id="patch_15">
    <path d="M 286.509851 374.198714 
L 304.177151 374.198714 
L 304.177151 373.9542 
L 286.509851 373.9542 
z
" clip-path="url(#p2c3d52b056)" style="fill: #87ceeb"/>
   </g>
   <g id="patch_16">
    <path d="M 286.509851 374.198714 
L 304.177151 374.198714 
L 304.177151 359.772383 
L 286.509851 359.772383 
z
" clip-path="url(#p2c3d52b056)" style="fill: #87ceeb"/>
   </g>
   <g id="patch_17">
    <path d="M 286.509851 374.198714 
L 304.177151 374.198714 
L 304.177151 365.885235 
L 286.509851 365.885235 
z
" clip-path="url(#p2c3d52b056)" style="fill: #87ceeb"/>
   </g>
   <g id="patch_18">
    <path d="M 308.593976 374.198714 
L 326.261275 374.198714 
L 326.261275 372.487116 
L 308.593976 372.487116 
z
" clip-path="url(#p2c3d52b056)" style="fill: #87ceeb"/>
   </g>
   <g id="patch_19">
    <path d="M 308.593976 374.198714 
L 326.261275 374.198714 
L 326.261275 371.264545 
L 308.593976 371.264545 
z
" clip-path="url(#p2c3d52b056)" style="fill: #87ceeb"/>
   </g>
   <g id="patch_20">
    <path d="M 308.593976 374.198714 
L 326.261275 374.198714 
L 326.261275 363.684609 
L 308.593976 363.684609 
z
" clip-path="url(#p2c3d52b056)" style="fill: #87ceeb"/>
   </g>
   <g id="patch_21">
    <path d="M 352.762225 374.198714 
L 370.429525 374.198714 
L 370.429525 366.374264 
L 352.762225 366.374264 
z
" clip-path="url(#p2c3d52b056)" style="fill: #87ceeb"/>
   </g>
   <g id="patch_22">
    <path d="M 352.762225 374.198714 
L 370.429525 374.198714 
L 370.429525 345.835081 
L 352.762225 345.835081 
z
" clip-path="url(#p2c3d52b056)" style="fill: #87ceeb"/>
   </g>
   <g id="patch_23">
    <path d="M 352.762225 374.198714 
L 370.429525 374.198714 
L 370.429525 338.744172 
L 352.762225 338.744172 
z
" clip-path="url(#p2c3d52b056)" style="fill: #87ceeb"/>
   </g>
   <g id="patch_24">
    <path d="M 419.0146 374.198714 
L 436.6819 374.198714 
L 436.6819 373.220658 
L 419.0146 373.220658 
z
" clip-path="url(#p2c3d52b056)" style="fill: #87ceeb"/>
   </g>
   <g id="patch_25">
    <path d="M 419.0146 374.198714 
L 436.6819 374.198714 
L 436.6819 311.114081 
L 419.0146 311.114081 
z
" clip-path="url(#p2c3d52b056)" style="fill: #87ceeb"/>
   </g>
   <g id="patch_26">
    <path d="M 419.0146 374.198714 
L 436.6819 374.198714 
L 436.6819 343.145426 
L 419.0146 343.145426 
z
" clip-path="url(#p2c3d52b056)" style="fill: #87ceeb"/>
   </g>
   <g id="patch_27">
    <path d="M 441.098725 374.198714 
L 458.766024 374.198714 
L 458.766024 372.73163 
L 441.098725 372.73163 
z
" clip-path="url(#p2c3d52b056)" style="fill: #87ceeb"/>
   </g>
   <g id="patch_28">
    <path d="M 441.098725 374.198714 
L 458.766024 374.198714 
L 458.766024 358.060785 
L 441.098725 358.060785 
z
" clip-path="url(#p2c3d52b056)" style="fill: #87ceeb"/>
   </g>
   <g id="patch_29">
    <path d="M 441.098725 374.198714 
L 458.766024 374.198714 
L 458.766024 356.104672 
L 441.098725 356.104672 
z
" clip-path="url(#p2c3d52b056)" style="fill: #87ceeb"/>
   </g>
   <g id="patch_30">
    <path d="M 485.266974 374.198714 
L 502.934274 374.198714 
L 502.934274 373.220658 
L 485.266974 373.220658 
z
" clip-path="url(#p2c3d52b056)" style="fill: #87ceeb"/>
   </g>
   <g id="patch_31">
    <path d="M 485.266974 374.198714 
L 502.934274 374.198714 
L 502.934274 366.618778 
L 485.266974 366.618778 
z
" clip-path="url(#p2c3d52b056)" style="fill: #87ceeb"/>
   </g>
   <g id="patch_32">
    <path d="M 485.266974 374.198714 
L 502.934274 374.198714 
L 502.934274 369.308433 
L 485.266974 369.308433 
z
" clip-path="url(#p2c3d52b056)" style="fill: #87ceeb"/>
   </g>
   <g id="patch_33">
    <path d="M 507.351099 374.198714 
L 525.018399 374.198714 
L 525.018399 368.57489 
L 507.351099 368.57489 
z
" clip-path="url(#p2c3d52b056)" style="fill: #87ceeb"/>
   </g>
   <g id="patch_34">
    <path d="M 507.351099 374.198714 
L 525.018399 374.198714 
L 525.018399 367.596834 
L 507.351099 367.596834 
z
" clip-path="url(#p2c3d52b056)" style="fill: #87ceeb"/>
   </g>
   <g id="patch_35">
    <path d="M 507.351099 374.198714 
L 525.018399 374.198714 
L 525.018399 357.571757 
L 507.351099 357.571757 
z
" clip-path="url(#p2c3d52b056)" style="fill: #87ceeb"/>
   </g>
   <g id="patch_36">
    <path d="M 573.603474 374.198714 
L 591.270773 374.198714 
L 591.270773 370.041975 
L 573.603474 370.041975 
z
" clip-path="url(#p2c3d52b056)" style="fill: #87ceeb"/>
   </g>
   <g id="patch_37">
    <path d="M 573.603474 374.198714 
L 591.270773 374.198714 
L 591.270773 361.97301 
L 573.603474 361.97301 
z
" clip-path="url(#p2c3d52b056)" style="fill: #87ceeb"/>
   </g>
   <g id="patch_38">
    <path d="M 573.603474 374.198714 
L 591.270773 374.198714 
L 591.270773 363.929123 
L 573.603474 363.929123 
z
" clip-path="url(#p2c3d52b056)" style="fill: #87ceeb"/>
   </g>
   <g id="patch_39">
    <path d="M 595.687598 374.198714 
L 613.354898 374.198714 
L 613.354898 292.53101 
L 595.687598 292.53101 
z
" clip-path="url(#p2c3d52b056)" style="fill: #87ceeb"/>
   </g>
   <g id="patch_40">
    <path d="M 595.687598 374.198714 
L 613.354898 374.198714 
L 613.354898 44.104701 
L 595.687598 44.104701 
z
" clip-path="url(#p2c3d52b056)" style="fill: #87ceeb"/>
   </g>
   <g id="patch_41">
    <path d="M 595.687598 374.198714 
L 613.354898 374.198714 
L 613.354898 87.628208 
L 595.687598 87.628208 
z
" clip-path="url(#p2c3d52b056)" style="fill: #87ceeb"/>
   </g>
   <g id="patch_42">
    <path d="M 617.771723 374.198714 
L 635.439023 374.198714 
L 635.439023 293.998095 
L 617.771723 293.998095 
z
" clip-path="url(#p2c3d52b056)" style="fill: #87ceeb"/>
   </g>
   <g id="patch_43">
    <path d="M 617.771723 374.198714 
L 635.439023 374.198714 
L 635.439023 225.289637 
L 617.771723 225.289637 
z
" clip-path="url(#p2c3d52b056)" style="fill: #87ceeb"/>
   </g>
   <g id="patch_44">
    <path d="M 617.771723 374.198714 
L 635.439023 374.198714 
L 635.439023 236.537285 
L 617.771723 236.537285 
z
" clip-path="url(#p2c3d52b056)" style="fill: #87ceeb"/>
   </g>
   <g id="patch_45">
    <path d="M 639.855848 374.198714 
L 657.523148 374.198714 
L 657.523148 371.264545 
L 639.855848 371.264545 
z
" clip-path="url(#p2c3d52b056)" style="fill: #87ceeb"/>
   </g>
   <g id="patch_46">
    <path d="M 639.855848 374.198714 
L 657.523148 374.198714 
L 657.523148 364.662665 
L 639.855848 364.662665 
z
" clip-path="url(#p2c3d52b056)" style="fill: #87ceeb"/>
   </g>
   <g id="patch_47">
    <path d="M 639.855848 374.198714 
L 657.523148 374.198714 
L 657.523148 371.753573 
L 639.855848 371.753573 
z
" clip-path="url(#p2c3d52b056)" style="fill: #87ceeb"/>
   </g>
   <g id="patch_48">
    <path d="M 661.939973 374.198714 
L 679.607273 374.198714 
L 679.607273 372.73163 
L 661.939973 372.73163 
z
" clip-path="url(#p2c3d52b056)" style="fill: #87ceeb"/>
   </g>
   <g id="patch_49">
    <path d="M 661.939973 374.198714 
L 679.607273 374.198714 
L 679.607273 373.465172 
L 661.939973 373.465172 
z
" clip-path="url(#p2c3d52b056)" style="fill: #87ceeb"/>
   </g>
   <g id="patch_50">
    <path d="M 661.939973 374.198714 
L 679.607273 374.198714 
L 679.607273 361.728496 
L 661.939973 361.728496 
z
" clip-path="url(#p2c3d52b056)" style="fill: #87ceeb"/>
   </g>
   <g id="matplotlib.axis_1">
    <g id="xtick_1">
     <g id="line2d_1">
      <defs>
       <path id="m2473a32179" d="M 0 0 
L 0 3.5 
" style="stroke: #000000; stroke-width: 0.8"/>
      </defs>
      <g>
       <use xlink:href="#m2473a32179" x="162.838752" y="374.198714" style="stroke: #000000; stroke-width: 0.8"/>
      </g>
     </g>
     <g id="text_1">
      <!-- 2000 -->
      <g transform="translate(155.791991 404.567489) rotate(-45) scale(0.1 -0.1)">
       <defs>
        <path id="DejaVuSans-32" d="M 1228 531 
L 3431 531 
L 3431 0 
L 469 0 
L 469 531 
Q 828 903 1448 1529 
Q 2069 2156 2228 2338 
Q 2531 2678 2651 2914 
Q 2772 3150 2772 3378 
Q 2772 3750 2511 3984 
Q 2250 4219 1831 4219 
Q 1534 4219 1204 4116 
Q 875 4013 500 3803 
L 500 4441 
Q 881 4594 1212 4672 
Q 1544 4750 1819 4750 
Q 2544 4750 2975 4387 
Q 3406 4025 3406 3419 
Q 3406 3131 3298 2873 
Q 3191 2616 2906 2266 
Q 2828 2175 2409 1742 
Q 1991 1309 1228 531 
z
" transform="scale(0.015625)"/>
        <path id="DejaVuSans-30" d="M 2034 4250 
Q 1547 4250 1301 3770 
Q 1056 3291 1056 2328 
Q 1056 1369 1301 889 
Q 1547 409 2034 409 
Q 2525 409 2770 889 
Q 3016 1369 3016 2328 
Q 3016 3291 2770 3770 
Q 2525 4250 2034 4250 
z
M 2034 4750 
Q 2819 4750 3233 4129 
Q 3647 3509 3647 2328 
Q 3647 1150 3233 529 
Q 2819 -91 2034 -91 
Q 1250 -91 836 529 
Q 422 1150 422 2328 
Q 422 3509 836 4129 
Q 1250 4750 2034 4750 
z
" transform="scale(0.015625)"/>
       </defs>
       <use xlink:href="#DejaVuSans-32"/>
       <use xlink:href="#DejaVuSans-30" x="63.623047"/>
       <use xlink:href="#DejaVuSans-30" x="127.246094"/>
       <use xlink:href="#DejaVuSans-30" x="190.869141"/>
      </g>
     </g>
    </g>
    <g id="xtick_2">
     <g id="line2d_2">
      <g>
       <use xlink:href="#m2473a32179" x="273.259376" y="374.198714" style="stroke: #000000; stroke-width: 0.8"/>
      </g>
     </g>
     <g id="text_2">
      <!-- 2005 -->
      <g transform="translate(266.212615 404.567489) rotate(-45) scale(0.1 -0.1)">
       <defs>
        <path id="DejaVuSans-35" d="M 691 4666 
L 3169 4666 
L 3169 4134 
L 1269 4134 
L 1269 2991 
Q 1406 3038 1543 3061 
Q 1681 3084 1819 3084 
Q 2600 3084 3056 2656 
Q 3513 2228 3513 1497 
Q 3513 744 3044 326 
Q 2575 -91 1722 -91 
Q 1428 -91 1123 -41 
Q 819 9 494 109 
L 494 744 
Q 775 591 1075 516 
Q 1375 441 1709 441 
Q 2250 441 2565 725 
Q 2881 1009 2881 1497 
Q 2881 1984 2565 2268 
Q 2250 2553 1709 2553 
Q 1456 2553 1204 2497 
Q 953 2441 691 2322 
L 691 4666 
z
" transform="scale(0.015625)"/>
       </defs>
       <use xlink:href="#DejaVuSans-32"/>
       <use xlink:href="#DejaVuSans-30" x="63.623047"/>
       <use xlink:href="#DejaVuSans-30" x="127.246094"/>
       <use xlink:href="#DejaVuSans-35" x="190.869141"/>
      </g>
     </g>
    </g>
    <g id="xtick_3">
     <g id="line2d_3">
      <g>
       <use xlink:href="#m2473a32179" x="383.68" y="374.198714" style="stroke: #000000; stroke-width: 0.8"/>
      </g>
     </g>
     <g id="text_3">
      <!-- 2010 -->
      <g transform="translate(376.633239 404.567489) rotate(-45) scale(0.1 -0.1)">
       <defs>
        <path id="DejaVuSans-31" d="M 794 531 
L 1825 531 
L 1825 4091 
L 703 3866 
L 703 4441 
L 1819 4666 
L 2450 4666 
L 2450 531 
L 3481 531 
L 3481 0 
L 794 0 
L 794 531 
z
" transform="scale(0.015625)"/>
       </defs>
       <use xlink:href="#DejaVuSans-32"/>
       <use xlink:href="#DejaVuSans-30" x="63.623047"/>
       <use xlink:href="#DejaVuSans-31" x="127.246094"/>
       <use xlink:href="#DejaVuSans-30" x="190.869141"/>
      </g>
     </g>
    </g>
    <g id="xtick_4">
     <g id="line2d_4">
      <g>
       <use xlink:href="#m2473a32179" x="494.100624" y="374.198714" style="stroke: #000000; stroke-width: 0.8"/>
      </g>
     </g>
     <g id="text_4">
      <!-- 2015 -->
      <g transform="translate(487.053863 404.567489) rotate(-45) scale(0.1 -0.1)">
       <use xlink:href="#DejaVuSans-32"/>
       <use xlink:href="#DejaVuSans-30" x="63.623047"/>
       <use xlink:href="#DejaVuSans-31" x="127.246094"/>
       <use xlink:href="#DejaVuSans-35" x="190.869141"/>
      </g>
     </g>
    </g>
    <g id="xtick_5">
     <g id="line2d_5">
      <g>
       <use xlink:href="#m2473a32179" x="604.521248" y="374.198714" style="stroke: #000000; stroke-width: 0.8"/>
      </g>
     </g>
     <g id="text_5">
      <!-- 2020 -->
      <g transform="translate(597.474487 404.567489) rotate(-45) scale(0.1 -0.1)">
       <use xlink:href="#DejaVuSans-32"/>
       <use xlink:href="#DejaVuSans-30" x="63.623047"/>
       <use xlink:href="#DejaVuSans-32" x="127.246094"/>
       <use xlink:href="#DejaVuSans-30" x="190.869141"/>
      </g>
     </g>
    </g>
    <g id="text_6">
     <!-- Year -->
     <g transform="translate(370.975 419.156175) scale(0.12 -0.12)">
      <defs>
       <path id="DejaVuSans-59" d="M -13 4666 
L 666 4666 
L 1959 2747 
L 3244 4666 
L 3922 4666 
L 2272 2222 
L 2272 0 
L 1638 0 
L 1638 2222 
L -13 4666 
z
" transform="scale(0.015625)"/>
       <path id="DejaVuSans-65" d="M 3597 1894 
L 3597 1613 
L 953 1613 
Q 991 1019 1311 708 
Q 1631 397 2203 397 
Q 2534 397 2845 478 
Q 3156 559 3463 722 
L 3463 178 
Q 3153 47 2828 -22 
Q 2503 -91 2169 -91 
Q 1331 -91 842 396 
Q 353 884 353 1716 
Q 353 2575 817 3079 
Q 1281 3584 2069 3584 
Q 2775 3584 3186 3129 
Q 3597 2675 3597 1894 
z
M 3022 2063 
Q 3016 2534 2758 2815 
Q 2500 3097 2075 3097 
Q 1594 3097 1305 2825 
Q 1016 2553 972 2059 
L 3022 2063 
z
" transform="scale(0.015625)"/>
       <path id="DejaVuSans-61" d="M 2194 1759 
Q 1497 1759 1228 1600 
Q 959 1441 959 1056 
Q 959 750 1161 570 
Q 1363 391 1709 391 
Q 2188 391 2477 730 
Q 2766 1069 2766 1631 
L 2766 1759 
L 2194 1759 
z
M 3341 1997 
L 3341 0 
L 2766 0 
L 2766 531 
Q 2569 213 2275 61 
Q 1981 -91 1556 -91 
Q 1019 -91 701 211 
Q 384 513 384 1019 
Q 384 1609 779 1909 
Q 1175 2209 1959 2209 
L 2766 2209 
L 2766 2266 
Q 2766 2663 2505 2880 
Q 2244 3097 1772 3097 
Q 1472 3097 1187 3025 
Q 903 2953 641 2809 
L 641 3341 
Q 956 3463 1253 3523 
Q 1550 3584 1831 3584 
Q 2591 3584 2966 3190 
Q 3341 2797 3341 1997 
z
" transform="scale(0.015625)"/>
       <path id="DejaVuSans-72" d="M 2631 2963 
Q 2534 3019 2420 3045 
Q 2306 3072 2169 3072 
Q 1681 3072 1420 2755 
Q 1159 2438 1159 1844 
L 1159 0 
L 581 0 
L 581 3500 
L 1159 3500 
L 1159 2956 
Q 1341 3275 1631 3429 
Q 1922 3584 2338 3584 
Q 2397 3584 2469 3576 
Q 2541 3569 2628 3553 
L 2631 2963 
z
" transform="scale(0.015625)"/>
      </defs>
      <use xlink:href="#DejaVuSans-59"/>
      <use xlink:href="#DejaVuSans-65" x="47.833984"/>
      <use xlink:href="#DejaVuSans-61" x="109.357422"/>
      <use xlink:href="#DejaVuSans-72" x="170.636719"/>
     </g>
    </g>
   </g>
   <g id="matplotlib.axis_2">
    <g id="ytick_1">
     <g id="line2d_6">
      <defs>
       <path id="m11ff0058b0" d="M 0 0 
L -3.5 0 
" style="stroke: #000000; stroke-width: 0.8"/>
      </defs>
      <g>
       <use xlink:href="#m11ff0058b0" x="58.16" y="374.198714" style="stroke: #000000; stroke-width: 0.8"/>
      </g>
     </g>
     <g id="text_7">
      <!-- 0 -->
      <g transform="translate(44.7975 377.997933) scale(0.1 -0.1)">
       <use xlink:href="#DejaVuSans-30"/>
      </g>
     </g>
    </g>
    <g id="ytick_2">
     <g id="line2d_7">
      <g>
       <use xlink:href="#m11ff0058b0" x="58.16" y="325.295897" style="stroke: #000000; stroke-width: 0.8"/>
      </g>
     </g>
     <g id="text_8">
      <!-- 200 -->
      <g transform="translate(32.0725 329.095116) scale(0.1 -0.1)">
       <use xlink:href="#DejaVuSans-32"/>
       <use xlink:href="#DejaVuSans-30" x="63.623047"/>
       <use xlink:href="#DejaVuSans-30" x="127.246094"/>
      </g>
     </g>
    </g>
    <g id="ytick_3">
     <g id="line2d_8">
      <g>
       <use xlink:href="#m11ff0058b0" x="58.16" y="276.393081" style="stroke: #000000; stroke-width: 0.8"/>
      </g>
     </g>
     <g id="text_9">
      <!-- 400 -->
      <g transform="translate(32.0725 280.192299) scale(0.1 -0.1)">
       <defs>
        <path id="DejaVuSans-34" d="M 2419 4116 
L 825 1625 
L 2419 1625 
L 2419 4116 
z
M 2253 4666 
L 3047 4666 
L 3047 1625 
L 3713 1625 
L 3713 1100 
L 3047 1100 
L 3047 0 
L 2419 0 
L 2419 1100 
L 313 1100 
L 313 1709 
L 2253 4666 
z
" transform="scale(0.015625)"/>
       </defs>
       <use xlink:href="#DejaVuSans-34"/>
       <use xlink:href="#DejaVuSans-30" x="63.623047"/>
       <use xlink:href="#DejaVuSans-30" x="127.246094"/>
      </g>
     </g>
    </g>
    <g id="ytick_4">
     <g id="line2d_9">
      <g>
       <use xlink:href="#m11ff0058b0" x="58.16" y="227.490264" style="stroke: #000000; stroke-width: 0.8"/>
      </g>
     </g>
     <g id="text_10">
      <!-- 600 -->
      <g transform="translate(32.0725 231.289483) scale(0.1 -0.1)">
       <defs>
        <path id="DejaVuSans-36" d="M 2113 2584 
Q 1688 2584 1439 2293 
Q 1191 2003 1191 1497 
Q 1191 994 1439 701 
Q 1688 409 2113 409 
Q 2538 409 2786 701 
Q 3034 994 3034 1497 
Q 3034 2003 2786 2293 
Q 2538 2584 2113 2584 
z
M 3366 4563 
L 3366 3988 
Q 3128 4100 2886 4159 
Q 2644 4219 2406 4219 
Q 1781 4219 1451 3797 
Q 1122 3375 1075 2522 
Q 1259 2794 1537 2939 
Q 1816 3084 2150 3084 
Q 2853 3084 3261 2657 
Q 3669 2231 3669 1497 
Q 3669 778 3244 343 
Q 2819 -91 2113 -91 
Q 1303 -91 875 529 
Q 447 1150 447 2328 
Q 447 3434 972 4092 
Q 1497 4750 2381 4750 
Q 2619 4750 2861 4703 
Q 3103 4656 3366 4563 
z
" transform="scale(0.015625)"/>
       </defs>
       <use xlink:href="#DejaVuSans-36"/>
       <use xlink:href="#DejaVuSans-30" x="63.623047"/>
       <use xlink:href="#DejaVuSans-30" x="127.246094"/>
      </g>
     </g>
    </g>
    <g id="ytick_5">
     <g id="line2d_10">
      <g>
       <use xlink:href="#m11ff0058b0" x="58.16" y="178.587447" style="stroke: #000000; stroke-width: 0.8"/>
      </g>
     </g>
     <g id="text_11">
      <!-- 800 -->
      <g transform="translate(32.0725 182.386666) scale(0.1 -0.1)">
       <defs>
        <path id="DejaVuSans-38" d="M 2034 2216 
Q 1584 2216 1326 1975 
Q 1069 1734 1069 1313 
Q 1069 891 1326 650 
Q 1584 409 2034 409 
Q 2484 409 2743 651 
Q 3003 894 3003 1313 
Q 3003 1734 2745 1975 
Q 2488 2216 2034 2216 
z
M 1403 2484 
Q 997 2584 770 2862 
Q 544 3141 544 3541 
Q 544 4100 942 4425 
Q 1341 4750 2034 4750 
Q 2731 4750 3128 4425 
Q 3525 4100 3525 3541 
Q 3525 3141 3298 2862 
Q 3072 2584 2669 2484 
Q 3125 2378 3379 2068 
Q 3634 1759 3634 1313 
Q 3634 634 3220 271 
Q 2806 -91 2034 -91 
Q 1263 -91 848 271 
Q 434 634 434 1313 
Q 434 1759 690 2068 
Q 947 2378 1403 2484 
z
M 1172 3481 
Q 1172 3119 1398 2916 
Q 1625 2713 2034 2713 
Q 2441 2713 2670 2916 
Q 2900 3119 2900 3481 
Q 2900 3844 2670 4047 
Q 2441 4250 2034 4250 
Q 1625 4250 1398 4047 
Q 1172 3844 1172 3481 
z
" transform="scale(0.015625)"/>
       </defs>
       <use xlink:href="#DejaVuSans-38"/>
       <use xlink:href="#DejaVuSans-30" x="63.623047"/>
       <use xlink:href="#DejaVuSans-30" x="127.246094"/>
      </g>
     </g>
    </g>
    <g id="ytick_6">
     <g id="line2d_11">
      <g>
       <use xlink:href="#m11ff0058b0" x="58.16" y="129.68463" style="stroke: #000000; stroke-width: 0.8"/>
      </g>
     </g>
     <g id="text_12">
      <!-- 1000 -->
      <g transform="translate(25.71 133.483849) scale(0.1 -0.1)">
       <use xlink:href="#DejaVuSans-31"/>
       <use xlink:href="#DejaVuSans-30" x="63.623047"/>
       <use xlink:href="#DejaVuSans-30" x="127.246094"/>
       <use xlink:href="#DejaVuSans-30" x="190.869141"/>
      </g>
     </g>
    </g>
    <g id="ytick_7">
     <g id="line2d_12">
      <g>
       <use xlink:href="#m11ff0058b0" x="58.16" y="80.781813" style="stroke: #000000; stroke-width: 0.8"/>
      </g>
     </g>
     <g id="text_13">
      <!-- 1200 -->
      <g transform="translate(25.71 84.581032) scale(0.1 -0.1)">
       <use xlink:href="#DejaVuSans-31"/>
       <use xlink:href="#DejaVuSans-32" x="63.623047"/>
       <use xlink:href="#DejaVuSans-30" x="127.246094"/>
       <use xlink:href="#DejaVuSans-30" x="190.869141"/>
      </g>
     </g>
    </g>
    <g id="ytick_8">
     <g id="line2d_13">
      <g>
       <use xlink:href="#m11ff0058b0" x="58.16" y="31.878996" style="stroke: #000000; stroke-width: 0.8"/>
      </g>
     </g>
     <g id="text_14">
      <!-- 1400 -->
      <g transform="translate(25.71 35.678215) scale(0.1 -0.1)">
       <use xlink:href="#DejaVuSans-31"/>
       <use xlink:href="#DejaVuSans-34" x="63.623047"/>
       <use xlink:href="#DejaVuSans-30" x="127.246094"/>
       <use xlink:href="#DejaVuSans-30" x="190.869141"/>
      </g>
     </g>
    </g>
    <g id="text_15">
     <!-- Count -->
     <g transform="translate(19.214375 218.717482) rotate(-90) scale(0.12 -0.12)">
      <defs>
       <path id="DejaVuSans-43" d="M 4122 4306 
L 4122 3641 
Q 3803 3938 3442 4084 
Q 3081 4231 2675 4231 
Q 1875 4231 1450 3742 
Q 1025 3253 1025 2328 
Q 1025 1406 1450 917 
Q 1875 428 2675 428 
Q 3081 428 3442 575 
Q 3803 722 4122 1019 
L 4122 359 
Q 3791 134 3420 21 
Q 3050 -91 2638 -91 
Q 1578 -91 968 557 
Q 359 1206 359 2328 
Q 359 3453 968 4101 
Q 1578 4750 2638 4750 
Q 3056 4750 3426 4639 
Q 3797 4528 4122 4306 
z
" transform="scale(0.015625)"/>
       <path id="DejaVuSans-6f" d="M 1959 3097 
Q 1497 3097 1228 2736 
Q 959 2375 959 1747 
Q 959 1119 1226 758 
Q 1494 397 1959 397 
Q 2419 397 2687 759 
Q 2956 1122 2956 1747 
Q 2956 2369 2687 2733 
Q 2419 3097 1959 3097 
z
M 1959 3584 
Q 2709 3584 3137 3096 
Q 3566 2609 3566 1747 
Q 3566 888 3137 398 
Q 2709 -91 1959 -91 
Q 1206 -91 779 398 
Q 353 888 353 1747 
Q 353 2609 779 3096 
Q 1206 3584 1959 3584 
z
" transform="scale(0.015625)"/>
       <path id="DejaVuSans-75" d="M 544 1381 
L 544 3500 
L 1119 3500 
L 1119 1403 
Q 1119 906 1312 657 
Q 1506 409 1894 409 
Q 2359 409 2629 706 
Q 2900 1003 2900 1516 
L 2900 3500 
L 3475 3500 
L 3475 0 
L 2900 0 
L 2900 538 
Q 2691 219 2414 64 
Q 2138 -91 1772 -91 
Q 1169 -91 856 284 
Q 544 659 544 1381 
z
M 1991 3584 
L 1991 3584 
z
" transform="scale(0.015625)"/>
       <path id="DejaVuSans-6e" d="M 3513 2113 
L 3513 0 
L 2938 0 
L 2938 2094 
Q 2938 2591 2744 2837 
Q 2550 3084 2163 3084 
Q 1697 3084 1428 2787 
Q 1159 2491 1159 1978 
L 1159 0 
L 581 0 
L 581 3500 
L 1159 3500 
L 1159 2956 
Q 1366 3272 1645 3428 
Q 1925 3584 2291 3584 
Q 2894 3584 3203 3211 
Q 3513 2838 3513 2113 
z
" transform="scale(0.015625)"/>
       <path id="DejaVuSans-74" d="M 1172 4494 
L 1172 3500 
L 2356 3500 
L 2356 3053 
L 1172 3053 
L 1172 1153 
Q 1172 725 1289 603 
Q 1406 481 1766 481 
L 2356 481 
L 2356 0 
L 1766 0 
Q 1100 0 847 248 
Q 594 497 594 1153 
L 594 3053 
L 172 3053 
L 172 3500 
L 594 3500 
L 594 4494 
L 1172 4494 
z
" transform="scale(0.015625)"/>
      </defs>
      <use xlink:href="#DejaVuSans-43"/>
      <use xlink:href="#DejaVuSans-6f" x="69.824219"/>
      <use xlink:href="#DejaVuSans-75" x="131.005859"/>
      <use xlink:href="#DejaVuSans-6e" x="194.384766"/>
      <use xlink:href="#DejaVuSans-74" x="257.763672"/>
     </g>
    </g>
   </g>
   <g id="patch_51">
    <path d="M 58.16 374.198714 
L 58.16 27.6 
" style="fill: none; stroke: #000000; stroke-width: 0.8; stroke-linejoin: miter; stroke-linecap: square"/>
   </g>
   <g id="patch_52">
    <path d="M 709.2 374.198714 
L 709.2 27.6 
" style="fill: none; stroke: #000000; stroke-width: 0.8; stroke-linejoin: miter; stroke-linecap: square"/>
   </g>
   <g id="patch_53">
    <path d="M 58.16 374.198714 
L 709.2 374.198714 
" style="fill: none; stroke: #000000; stroke-width: 0.8; stroke-linejoin: miter; stroke-linecap: square"/>
   </g>
   <g id="patch_54">
    <path d="M 58.16 27.6 
L 709.2 27.6 
" style="fill: none; stroke: #000000; stroke-width: 0.8; stroke-linejoin: miter; stroke-linecap: square"/>
   </g>
   <g id="text_16">
    <!-- Trending Terms Over Time -->
    <g transform="translate(280.338125 21.6) scale(0.14 -0.14)">
     <defs>
      <path id="DejaVuSans-Bold-54" d="M 31 4666 
L 4331 4666 
L 4331 3756 
L 2784 3756 
L 2784 0 
L 1581 0 
L 1581 3756 
L 31 3756 
L 31 4666 
z
" transform="scale(0.015625)"/>
      <path id="DejaVuSans-Bold-72" d="M 3138 2547 
Q 2991 2616 2845 2648 
Q 2700 2681 2553 2681 
Q 2122 2681 1889 2404 
Q 1656 2128 1656 1613 
L 1656 0 
L 538 0 
L 538 3500 
L 1656 3500 
L 1656 2925 
Q 1872 3269 2151 3426 
Q 2431 3584 2822 3584 
Q 2878 3584 2943 3579 
Q 3009 3575 3134 3559 
L 3138 2547 
z
" transform="scale(0.015625)"/>
      <path id="DejaVuSans-Bold-65" d="M 4031 1759 
L 4031 1441 
L 1416 1441 
Q 1456 1047 1700 850 
Q 1944 653 2381 653 
Q 2734 653 3104 758 
Q 3475 863 3866 1075 
L 3866 213 
Q 3469 63 3072 -14 
Q 2675 -91 2278 -91 
Q 1328 -91 801 392 
Q 275 875 275 1747 
Q 275 2603 792 3093 
Q 1309 3584 2216 3584 
Q 3041 3584 3536 3087 
Q 4031 2591 4031 1759 
z
M 2881 2131 
Q 2881 2450 2695 2645 
Q 2509 2841 2209 2841 
Q 1884 2841 1681 2658 
Q 1478 2475 1428 2131 
L 2881 2131 
z
" transform="scale(0.015625)"/>
      <path id="DejaVuSans-Bold-6e" d="M 4056 2131 
L 4056 0 
L 2931 0 
L 2931 347 
L 2931 1631 
Q 2931 2084 2911 2256 
Q 2891 2428 2841 2509 
Q 2775 2619 2662 2680 
Q 2550 2741 2406 2741 
Q 2056 2741 1856 2470 
Q 1656 2200 1656 1722 
L 1656 0 
L 538 0 
L 538 3500 
L 1656 3500 
L 1656 2988 
Q 1909 3294 2193 3439 
Q 2478 3584 2822 3584 
Q 3428 3584 3742 3212 
Q 4056 2841 4056 2131 
z
" transform="scale(0.015625)"/>
      <path id="DejaVuSans-Bold-64" d="M 2919 2988 
L 2919 4863 
L 4044 4863 
L 4044 0 
L 2919 0 
L 2919 506 
Q 2688 197 2409 53 
Q 2131 -91 1766 -91 
Q 1119 -91 703 423 
Q 288 938 288 1747 
Q 288 2556 703 3070 
Q 1119 3584 1766 3584 
Q 2128 3584 2408 3439 
Q 2688 3294 2919 2988 
z
M 2181 722 
Q 2541 722 2730 984 
Q 2919 1247 2919 1747 
Q 2919 2247 2730 2509 
Q 2541 2772 2181 2772 
Q 1825 2772 1636 2509 
Q 1447 2247 1447 1747 
Q 1447 1247 1636 984 
Q 1825 722 2181 722 
z
" transform="scale(0.015625)"/>
      <path id="DejaVuSans-Bold-69" d="M 538 3500 
L 1656 3500 
L 1656 0 
L 538 0 
L 538 3500 
z
M 538 4863 
L 1656 4863 
L 1656 3950 
L 538 3950 
L 538 4863 
z
" transform="scale(0.015625)"/>
      <path id="DejaVuSans-Bold-67" d="M 2919 594 
Q 2688 288 2409 144 
Q 2131 0 1766 0 
Q 1125 0 706 504 
Q 288 1009 288 1791 
Q 288 2575 706 3076 
Q 1125 3578 1766 3578 
Q 2131 3578 2409 3434 
Q 2688 3291 2919 2981 
L 2919 3500 
L 4044 3500 
L 4044 353 
Q 4044 -491 3511 -936 
Q 2978 -1381 1966 -1381 
Q 1638 -1381 1331 -1331 
Q 1025 -1281 716 -1178 
L 716 -306 
Q 1009 -475 1290 -558 
Q 1572 -641 1856 -641 
Q 2406 -641 2662 -400 
Q 2919 -159 2919 353 
L 2919 594 
z
M 2181 2772 
Q 1834 2772 1640 2515 
Q 1447 2259 1447 1791 
Q 1447 1309 1634 1061 
Q 1822 813 2181 813 
Q 2531 813 2725 1069 
Q 2919 1325 2919 1791 
Q 2919 2259 2725 2515 
Q 2531 2772 2181 2772 
z
" transform="scale(0.015625)"/>
      <path id="DejaVuSans-Bold-20" transform="scale(0.015625)"/>
      <path id="DejaVuSans-Bold-6d" d="M 3781 2919 
Q 3994 3244 4286 3414 
Q 4578 3584 4928 3584 
Q 5531 3584 5847 3212 
Q 6163 2841 6163 2131 
L 6163 0 
L 5038 0 
L 5038 1825 
Q 5041 1866 5042 1909 
Q 5044 1953 5044 2034 
Q 5044 2406 4934 2573 
Q 4825 2741 4581 2741 
Q 4263 2741 4089 2478 
Q 3916 2216 3909 1719 
L 3909 0 
L 2784 0 
L 2784 1825 
Q 2784 2406 2684 2573 
Q 2584 2741 2328 2741 
Q 2006 2741 1831 2477 
Q 1656 2213 1656 1722 
L 1656 0 
L 531 0 
L 531 3500 
L 1656 3500 
L 1656 2988 
Q 1863 3284 2130 3434 
Q 2397 3584 2719 3584 
Q 3081 3584 3359 3409 
Q 3638 3234 3781 2919 
z
" transform="scale(0.015625)"/>
      <path id="DejaVuSans-Bold-73" d="M 3272 3391 
L 3272 2541 
Q 2913 2691 2578 2766 
Q 2244 2841 1947 2841 
Q 1628 2841 1473 2761 
Q 1319 2681 1319 2516 
Q 1319 2381 1436 2309 
Q 1553 2238 1856 2203 
L 2053 2175 
Q 2913 2066 3209 1816 
Q 3506 1566 3506 1031 
Q 3506 472 3093 190 
Q 2681 -91 1863 -91 
Q 1516 -91 1145 -36 
Q 775 19 384 128 
L 384 978 
Q 719 816 1070 734 
Q 1422 653 1784 653 
Q 2113 653 2278 743 
Q 2444 834 2444 1013 
Q 2444 1163 2330 1236 
Q 2216 1309 1875 1350 
L 1678 1375 
Q 931 1469 631 1722 
Q 331 1975 331 2491 
Q 331 3047 712 3315 
Q 1094 3584 1881 3584 
Q 2191 3584 2531 3537 
Q 2872 3491 3272 3391 
z
" transform="scale(0.015625)"/>
      <path id="DejaVuSans-Bold-4f" d="M 2719 3878 
Q 2169 3878 1866 3472 
Q 1563 3066 1563 2328 
Q 1563 1594 1866 1187 
Q 2169 781 2719 781 
Q 3272 781 3575 1187 
Q 3878 1594 3878 2328 
Q 3878 3066 3575 3472 
Q 3272 3878 2719 3878 
z
M 2719 4750 
Q 3844 4750 4481 4106 
Q 5119 3463 5119 2328 
Q 5119 1197 4481 553 
Q 3844 -91 2719 -91 
Q 1597 -91 958 553 
Q 319 1197 319 2328 
Q 319 3463 958 4106 
Q 1597 4750 2719 4750 
z
" transform="scale(0.015625)"/>
      <path id="DejaVuSans-Bold-76" d="M 97 3500 
L 1216 3500 
L 2088 1081 
L 2956 3500 
L 4078 3500 
L 2700 0 
L 1472 0 
L 97 3500 
z
" transform="scale(0.015625)"/>
     </defs>
     <use xlink:href="#DejaVuSans-Bold-54"/>
     <use xlink:href="#DejaVuSans-Bold-72" x="57.212891"/>
     <use xlink:href="#DejaVuSans-Bold-65" x="106.529297"/>
     <use xlink:href="#DejaVuSans-Bold-6e" x="174.351562"/>
     <use xlink:href="#DejaVuSans-Bold-64" x="245.542969"/>
     <use xlink:href="#DejaVuSans-Bold-69" x="317.125"/>
     <use xlink:href="#DejaVuSans-Bold-6e" x="351.402344"/>
     <use xlink:href="#DejaVuSans-Bold-67" x="422.59375"/>
     <use xlink:href="#DejaVuSans-Bold-20" x="494.175781"/>
     <use xlink:href="#DejaVuSans-Bold-54" x="528.990234"/>
     <use xlink:href="#DejaVuSans-Bold-65" x="583.953125"/>
     <use xlink:href="#DejaVuSans-Bold-72" x="651.775391"/>
     <use xlink:href="#DejaVuSans-Bold-6d" x="701.091797"/>
     <use xlink:href="#DejaVuSans-Bold-73" x="805.291016"/>
     <use xlink:href="#DejaVuSans-Bold-20" x="864.8125"/>
     <use xlink:href="#DejaVuSans-Bold-4f" x="899.626953"/>
     <use xlink:href="#DejaVuSans-Bold-76" x="984.636719"/>
     <use xlink:href="#DejaVuSans-Bold-65" x="1049.822266"/>
     <use xlink:href="#DejaVuSans-Bold-72" x="1117.644531"/>
     <use xlink:href="#DejaVuSans-Bold-20" x="1166.960938"/>
     <use xlink:href="#DejaVuSans-Bold-54" x="1201.775391"/>
     <use xlink:href="#DejaVuSans-Bold-69" x="1269.988281"/>
     <use xlink:href="#DejaVuSans-Bold-6d" x="1304.265625"/>
     <use xlink:href="#DejaVuSans-Bold-65" x="1408.464844"/>
    </g>
   </g>
  </g>
 </g>
 <defs>
  <clipPath id="p2c3d52b056">
   <rect x="58.16" y="27.6" width="651.04" height="346.598714"/>
  </clipPath>
 </defs>
</svg>
